<svg width="760" height="270" viewBox="0 0 169 60" fill="none" xmlns="http://www.w3.org/2000/svg">
<rect x="7" y="11" width="8" height="49" fill="#F2C53D"/>
<rect width="15" height="8" fill="#F2C53D"/>
<rect y="52" width="15" height="8" fill="#F2C53D"/>
<rect x="124" width="15" height="8" fill="#F2C53D"/>
<rect x="124" y="52" width="15" height="8" fill="#F2C53D"/>
<rect x="21" width="8" height="60" fill="#F2C53D"/>
<rect x="46" width="8" height="60" fill="#F2C53D"/>
<rect x="46" y="52" width="33" height="8" fill="#F2C53D"/>
<rect x="92.6569" width="15.2277" height="8" transform="rotate(45 92.6569 0)" fill="#F2C53D"/>
<rect x="106.657" y="13" width="15.2277" height="8" transform="rotate(45 106.657 13)" fill="#F2C53D"/>
<rect x="145" y="22" width="22" height="8" transform="rotate(-90 145 22)" fill="#F2C53D"/>
<rect x="161" y="22" width="22" height="8" transform="rotate(-90 161 22)" fill="#F2C53D"/>
<rect x="145" y="60" width="31" height="8" transform="rotate(-90 145 60)" fill="#F2C53D"/>
<rect x="153" y="30" width="9" height="8" transform="rotate(-90 153 30)" fill="#F2C53D"/>
<rect x="161" y="60" width="31" height="8" transform="rotate(-90 161 60)" fill="#F2C53D"/>
<rect x="71" width="8" height="60" fill="#F2C53D"/>
<rect x="85" width="8" height="26" fill="#F2C53D"/>
<rect x="85" y="29" width="8" height="31" fill="#F2C53D"/>
<rect x="110" width="8" height="60" fill="#F2C53D"/>
<rect x="124" y="11" width="8" height="49" fill="#F2C53D"/>
<rect x="21" width="22" height="8" fill="#F2C53D"/>
<rect x="21" y="52" width="22" height="8" fill="#F2C53D"/>
</svg>
